<svg width="20" height="18" viewBox="0 0 20 18" fill="none" xmlns="http://www.w3.org/2000/svg">
<path d="M10 12.4599C9.83333 12.4599 9.67708 12.4377 9.53125 12.3932C9.38542 12.3487 9.25 12.2723 9.125 12.1639L4.625 8.28867C4.375 8.07338 4.255 7.82221 4.265 7.53516C4.275 7.24811 4.395 6.99693 4.625 6.78164C4.875 6.56635 5.17208 6.4544 5.51625 6.44579C5.86042 6.43718 6.15708 6.54016 6.40625 6.75473L8.75 8.77308V1.07645C8.75 0.77146 8.87 0.515983 9.11 0.310022C9.35 0.104061 9.64667 0.000721346 10 3.71189e-06C10.3533 -0.000713922 10.6504 0.102625 10.8913 0.310022C11.1321 0.517418 11.2517 0.772895 11.25 1.07645V8.77308L13.5938 6.75473C13.8438 6.53944 14.1408 6.4361 14.485 6.44471C14.8292 6.45333 15.1258 6.56564 15.375 6.78164C15.6042 6.99693 15.7242 7.24811 15.735 7.53516C15.7458 7.82221 15.6258 8.07338 15.375 8.28867L10.875 12.1639C10.75 12.2715 10.6146 12.348 10.4688 12.3932C10.3229 12.4384 10.1667 12.4606 10 12.4599ZM2.5 17.2232C1.8125 17.2232 1.22417 17.0126 0.735 16.5913C0.245833 16.1701 0.000833333 15.6631 0 15.0703V12.9174C0 12.6124 0.12 12.3569 0.36 12.151C0.6 11.945 0.896667 11.8417 1.25 11.841C1.60333 11.8402 1.90042 11.9436 2.14125 12.151C2.38208 12.3584 2.50167 12.6139 2.5 12.9174V15.0703H17.5V12.9174C17.5 12.6124 17.62 12.3569 17.86 12.151C18.1 11.945 18.3967 11.8417 18.75 11.841C19.1033 11.8402 19.4004 11.9436 19.6412 12.151C19.8821 12.3584 20.0017 12.6139 20 12.9174V15.0703C20 15.6624 19.7554 16.1694 19.2663 16.5913C18.7771 17.0133 18.1883 17.2239 17.5 17.2232H2.5Z" fill="black"/>
</svg>
