<svg width="25" height="18" viewBox="0 0 25 18" fill="none" xmlns="http://www.w3.org/2000/svg">
<path d="M22.5 0H2.5C1.125 0 0.0125 0.968806 0.0125 2.1529L0 15.0703C0 16.2544 1.125 17.2232 2.5 17.2232H22.5C23.875 17.2232 25 16.2544 25 15.0703V2.1529C25 0.968806 23.875 0 22.5 0ZM22 4.57492L13.1625 9.33283C12.7625 9.54812 12.2375 9.54812 11.8375 9.33283L3 4.57492C2.87466 4.51432 2.7649 4.43246 2.67736 4.33428C2.58982 4.2361 2.52633 4.12364 2.49072 4.00372C2.45511 3.8838 2.44813 3.7589 2.4702 3.63658C2.49226 3.51427 2.54292 3.39708 2.6191 3.29211C2.69528 3.18714 2.79541 3.09658 2.91341 3.0259C3.03141 2.95522 3.16484 2.90589 3.30562 2.8809C3.4464 2.85592 3.5916 2.85579 3.73244 2.88053C3.87328 2.90526 4.00683 2.95435 4.125 3.02483L12.5 7.53515L20.875 3.02483C20.9932 2.95435 21.1267 2.90526 21.2676 2.88053C21.4084 2.85579 21.5536 2.85592 21.6944 2.8809C21.8352 2.90589 21.9686 2.95522 22.0866 3.0259C22.2046 3.09658 22.3047 3.18714 22.3809 3.29211C22.4571 3.39708 22.5077 3.51427 22.5298 3.63658C22.5519 3.7589 22.5449 3.8838 22.5093 4.00372C22.4737 4.12364 22.4102 4.2361 22.3226 4.33428C22.2351 4.43246 22.1253 4.51432 22 4.57492Z" fill="#050316"/>
</svg>
