<svg width="16" height="16" viewBox="0 0 16 16" fill="none" xmlns="http://www.w3.org/2000/svg">
<path d="M8.94084 3.2079V12.5876C8.94084 12.7123 8.89129 12.8319 8.80309 12.9201C8.71489 13.0083 8.59526 13.0579 8.47052 13.0579C8.34579 13.0579 8.22616 13.0083 8.13796 12.9201C8.04976 12.8319 8.00021 12.7123 8.00021 12.5876V3.2079L4.56896 6.85321C4.52652 6.89938 4.47496 6.93624 4.41753 6.96145C4.36011 6.98666 4.29808 6.99968 4.23537 6.99968C4.17265 6.99968 4.11062 6.98666 4.0532 6.96145C3.99578 6.93624 3.94422 6.89938 3.90177 6.85321C3.81327 6.7569 3.76416 6.63088 3.76416 6.50008C3.76416 6.36929 3.81327 6.24326 3.90177 6.14696L8.13615 1.64696C8.17859 1.60079 8.23015 1.56393 8.28758 1.53872C8.345 1.51351 8.40703 1.50049 8.46974 1.50049C8.53246 1.50049 8.59449 1.51351 8.65191 1.53872C8.70933 1.56393 8.7609 1.60079 8.80334 1.64696L13.0393 6.14696C13.1278 6.24326 13.1769 6.36929 13.1769 6.50008C13.1769 6.63088 13.1278 6.7569 13.0393 6.85321C12.9968 6.89913 12.9454 6.93577 12.8881 6.96083C12.8308 6.98589 12.769 6.99883 12.7065 6.99883C12.6439 6.99883 12.5821 6.98589 12.5248 6.96083C12.4675 6.93577 12.4161 6.89913 12.3737 6.85321L8.94084 3.2079Z" fill="white"/>
</svg>
